<?xml version="1.0" encoding="UTF-8"?>
<svg version="1.1" xmlns="http://www.w3.org/2000/svg" width="512" height="512">
<path d="M0 0 C0.80093079 0.00182281 1.60186157 0.00364563 2.42706299 0.00552368 C16.44840254 0.05887839 30.16414804 0.9069919 44 3.3125 C44.9384375 3.47347168 45.876875 3.63444336 46.84375 3.80029297 C79.5090073 9.63898336 111.63775908 22.42306986 139 41.3125 C139.58700684 41.70856445 140.17401367 42.10462891 140.77880859 42.51269531 C150.08499043 48.804555 158.61931622 55.84439574 167 63.3125 C167.54994629 63.79928223 168.09989258 64.28606445 168.66650391 64.78759766 C174.87090852 70.29500313 180.69466436 75.91889038 186 82.3125 C186.83015625 83.26640625 187.6603125 84.2203125 188.515625 85.203125 C216.85081469 117.83730838 236.07586812 157.78159111 244.3125 200.1875 C244.45977539 200.94538818 244.60705078 201.70327637 244.75878906 202.48413086 C247.40913219 217.23325933 248.38368946 231.97267518 248.3125 246.9375 C248.31034485 247.76188568 248.3081897 248.58627136 248.30596924 249.43563843 C248.08025366 303.55845057 229.87294824 356.90421298 196 399.3125 C195.23067139 400.28268066 195.23067139 400.28268066 194.44580078 401.27246094 C183.71935061 414.75094985 172.57653859 426.64259162 159 437.3125 C157.9542665 438.17009455 156.91005214 439.02954411 155.8671875 439.890625 C125.68197712 464.56940488 89.40948067 480.26679253 51.375 488.0625 C49.92891357 488.36075684 49.92891357 488.36075684 48.45361328 488.66503906 C33.16185205 491.63624279 17.92788254 492.6972313 2.375 492.625 C1.13991699 492.62226578 1.13991699 492.62226578 -0.12011719 492.61947632 C-67.64428492 492.36926002 -129.03310606 464.26453235 -176.51025391 416.80273438 C-184.83811695 408.31112929 -191.99321557 398.89870507 -199 389.3125 C-199.43666992 388.72194824 -199.87333984 388.13139648 -200.32324219 387.52294922 C-222.67808167 356.96897155 -236.22549554 319.49669493 -242 282.3125 C-242.17571533 281.24443115 -242.17571533 281.24443115 -242.35498047 280.15478516 C-251.99961907 219.32047482 -235.6662901 153.11382676 -199.60693359 103.39160156 C-196.53381271 99.25558856 -193.30064922 95.2679573 -190 91.3125 C-189.29689697 90.45712646 -189.29689697 90.45712646 -188.57958984 89.58447266 C-177.88115895 76.59067621 -166.32174543 64.64016893 -153 54.3125 C-152.04222656 53.53777344 -151.08445312 52.76304688 -150.09765625 51.96484375 C-107.70636844 18.23356682 -54.09344884 -0.25818067 0 0 Z M-19 39.3125 C-15.96204759 67.46354658 -12.59004064 95.57110919 -9.16259766 123.67706299 C-8.4637973 129.41084394 -7.76716159 135.14488789 -7.0703125 140.87890625 C-5.71559134 152.02368752 -4.3585811 163.16818865 -3 174.3125 C-1.72125 174.43367187 -0.4425 174.55484375 0.875 174.6796875 C2.58336419 174.8486466 4.29169584 175.01793499 6 175.1875 C6.83917969 175.26613281 7.67835938 175.34476563 8.54296875 175.42578125 C13.86599475 175.96221023 18.84088756 176.8913556 24 178.3125 C21.39539678 160.38309821 18.61455243 142.4901026 15.671875 124.61328125 C15.27384691 122.18567312 14.87600323 119.75803474 14.47833252 117.33036804 C13.44778634 111.04219045 12.41479228 104.75441757 11.38122559 98.46673584 C10.32033212 92.00997531 9.26184019 85.55282112 8.203125 79.09570312 C6.13772041 66.50092337 4.06980249 53.90655772 2 41.3125 C0.72240356 40.81578495 -0.55690086 40.32346139 -1.83691406 39.83300781 C-2.54914124 39.55837708 -3.26136841 39.28374634 -3.99517822 39.00079346 C-6.32373088 38.20135703 -8.2927318 37.97281868 -10.75 38.0625 C-11.46671875 38.07796875 -12.1834375 38.0934375 -12.921875 38.109375 C-15.03101188 38.31553124 -16.95261548 38.77900398 -19 39.3125 Z M40 42.3125 C40.26589093 61.04692628 40.59374287 79.77930081 40.99467182 98.51133537 C41.17941493 107.20979666 41.34413505 115.90776454 41.46118164 124.60742188 C41.56329536 132.19335017 41.70352781 139.77746938 41.88889474 147.36183655 C41.98567305 151.37534543 42.06377957 155.38720305 42.09618568 159.40179062 C42.1273501 163.18768977 42.20978335 166.96913549 42.33020973 170.75321388 C42.38208875 172.79034626 42.38084473 174.82861913 42.37753296 176.8664093 C42.63362228 183.34398608 43.37018206 187.35788509 48.04721659 191.8647815 C50.27901883 193.80471329 52.59520486 195.59328523 55 197.3125 C61.62651274 194.1073503 67.91404869 190.63488221 74.125 186.6875 C83.32958868 180.91087392 92.64437245 175.3391338 102 169.8125 C112.82934579 163.41046973 123.59802024 156.92966035 134.26171875 150.25390625 C137.55218487 148.19727943 140.86799192 146.19161978 144.20703125 144.21484375 C145.04508301 143.71533203 145.88313477 143.21582031 146.74658203 142.70117188 C148.32458709 141.76301804 149.90732248 140.83275574 151.49560547 139.91210938 C152.53998779 139.28852539 152.53998779 139.28852539 153.60546875 138.65234375 C154.21543701 138.29519287 154.82540527 137.93804199 155.45385742 137.57006836 C159.51594738 134.26613257 159.58207498 129.25687497 160.125 124.375 C160.25455078 123.32022461 160.25455078 123.32022461 160.38671875 122.24414062 C160.61982906 120.27010329 160.81116369 118.29126342 161 116.3125 C161.12117188 115.44109375 161.24234375 114.5696875 161.3671875 113.671875 C160.80375548 110.05152459 158.48195203 108.00989829 156 105.5 C155.49597656 104.97301514 154.99195313 104.44603027 154.47265625 103.90307617 C153.4575682 102.84617708 152.4367989 101.7947023 151.41015625 100.74902344 C150.21879666 99.53538773 149.04485937 98.30468618 147.875 97.0703125 C121.46891085 69.67399501 81.56229899 48.20462533 44 42.3125 C42.68 42.3125 41.36 42.3125 40 42.3125 Z M-133 87.3125 C-133.48758789 87.7465918 -133.97517578 88.18068359 -134.47753906 88.62792969 C-138.03357914 91.80590421 -141.52925662 95.04161685 -145 98.3125 C-145.7321875 99.00214844 -146.464375 99.69179687 -147.21875 100.40234375 C-152.62978899 105.65233991 -157.3270072 111.4052782 -162 117.3125 C-162.81726563 118.32441406 -163.63453125 119.33632812 -164.4765625 120.37890625 C-169.10889796 126.18457532 -173.29153458 132.13436533 -177.125 138.5 C-177.51558594 139.14807617 -177.90617187 139.79615234 -178.30859375 140.46386719 C-180.33820483 143.67171116 -180.33820483 143.67171116 -181 147.3125 C-179.92228836 147.62189011 -178.84457672 147.93128021 -177.73420715 148.25004578 C-167.34379748 151.23298472 -156.95350476 154.21633075 -146.56331348 157.20003033 C-140.19540754 159.02865489 -133.82742259 160.85700388 -127.45935249 162.68505669 C-124.36059863 163.57471806 -121.26194554 164.46472981 -118.16329956 165.35476685 C-114.02256768 166.5440395 -109.88133865 167.73156002 -105.73977661 168.91793823 C-96.22454134 171.64587096 -86.71431521 174.38839172 -77.22020054 177.18907833 C-73.02686863 178.42591893 -68.83161128 179.65616021 -64.63632774 180.88636208 C-62.65057883 181.47102235 -60.6658879 182.05928912 -58.68232155 182.65131187 C-55.95177095 183.4661991 -53.21795767 184.26910294 -50.4831543 185.06958008 C-49.67774641 185.31362642 -48.87233852 185.55767277 -48.04252434 185.80911446 C-42.66745326 187.36488579 -40.12521311 187.38401108 -35.203125 184.90234375 C-34.22859375 184.35707031 -33.2540625 183.81179687 -32.25 183.25 C-31.26515625 182.70214844 -30.2803125 182.15429688 -29.265625 181.58984375 C-28.14414062 180.95755859 -28.14414062 180.95755859 -27 180.3125 C-27.19077118 179.49343674 -27.38154236 178.67437347 -27.57809448 177.83049011 C-27.84993561 176.66334976 -28.12177673 175.49620941 -28.40185547 174.29370117 C-28.62676178 173.32812696 -28.62676178 173.32812696 -28.85621166 172.34304619 C-29.71419502 168.65944456 -30.5720065 164.97580301 -31.42955017 161.292099 C-33.16324175 153.8454359 -34.89798982 146.399026 -36.6377306 138.9537735 C-37.61467368 134.77273523 -38.5907723 130.59150018 -39.56640625 126.41015625 C-39.7596945 125.5818203 -39.95298275 124.75348434 -40.15212822 123.9000473 C-42.55205384 113.60857236 -44.91404846 103.3102395 -47.21484375 92.99609375 C-47.87865374 90.04506332 -48.5433755 87.09423969 -49.20831299 84.14346313 C-49.60931428 82.3475048 -50.0046737 80.55027693 -50.39422607 78.75180054 C-50.92247527 76.31305681 -51.46885781 73.87907252 -52.01953125 71.4453125 C-52.23572365 70.40527321 -52.23572365 70.40527321 -52.45628357 69.34422302 C-53.13056888 66.43835611 -53.70223201 64.60358404 -55.85986328 62.49438477 C-59.50579016 60.48093142 -63.25072353 58.79927513 -67.0625 57.125 C-67.87783203 56.75697266 -68.69316406 56.38894531 -69.53320312 56.00976562 C-70.31759766 55.66236328 -71.10199219 55.31496094 -71.91015625 54.95703125 C-72.62308838 54.64096924 -73.33602051 54.32490723 -74.07055664 53.99926758 C-89.35239947 48.55983649 -121.98789055 77.48150009 -133 87.3125 Z M183.94140625 166.46875 C183.2187709 166.80228989 182.49613556 167.13582977 181.75160217 167.47947693 C179.3536506 168.58709317 176.95812913 169.6998707 174.5625 170.8125 C172.87894596 171.59101417 171.19518656 172.36908438 169.51123047 173.14672852 C166.90963083 174.34815397 164.30814516 175.54981809 161.70727539 176.75282288 C154.06312559 180.28799303 146.40433812 183.79049391 138.74142456 187.28475952 C123.49101732 194.24003242 108.2674502 201.25283935 93.05322266 208.28686523 C85.04702546 211.98779854 77.03752804 215.67990025 69 219.3125 C69.71825289 225.33745624 70.60087869 231.32192133 71.5625 237.3125 C71.70107422 238.18261719 71.83964844 239.05273438 71.98242188 239.94921875 C72.32042852 242.07050183 72.66004584 244.19152816 73 246.3125 C84.06616963 241.18215932 94.96776865 235.83722162 105.734375 230.10546875 C111.88096286 226.83401263 118.0658319 223.63718405 124.25 220.4375 C133.69238694 215.54783405 143.12930867 210.64806691 152.55297852 205.72241211 C158.42150109 202.65511321 164.297972 199.60374118 170.18041992 196.56323242 C173.09212992 195.0495782 175.99195271 193.51500082 178.890625 191.9765625 C181.92792188 190.36851607 184.96604353 188.84937386 188.109375 187.4609375 C191.245837 185.96633237 193.61048464 184.83144744 196 182.3125 C197.49534821 176.60429577 197.06166239 170.85272739 194.5 165.5 C194.005 164.778125 193.51 164.05625 193 163.3125 C189.69669212 163.3125 186.89040154 165.09236796 183.94140625 166.46875 Z M-194 183.3125 C-195.67393964 184.98463906 -195.67393964 184.98463906 -197.125 187.25 C-197.64320313 187.98089844 -198.16140625 188.71179688 -198.6953125 189.46484375 C-199.95462132 192.21345493 -200.29451495 194.02591783 -200.58154297 196.99047852 C-200.6625827 197.80009537 -200.74362244 198.60971222 -200.82711792 199.44386292 C-200.88416901 200.06051315 -200.94122009 200.67716339 -201 201.3125 C-183.84307872 204.85953645 -166.68436379 208.39774357 -149.52344799 211.92540073 C-141.55569296 213.56349533 -133.58855627 215.2044925 -125.62280273 216.85229492 C-118.68125813 218.28822099 -111.73862338 219.71873025 -104.79461557 221.14269871 C-101.11659042 221.89712883 -97.43917525 222.65429171 -93.76305199 223.41794014 C-89.66298809 224.26954902 -85.56053807 225.10905655 -81.45776367 225.94750977 C-80.23425201 226.20357498 -79.01074036 226.4596402 -77.75015259 226.72346497 C-76.63536026 226.94927246 -75.52056793 227.17507996 -74.37199402 227.4077301 C-73.40134601 227.60775918 -72.43069799 227.80778826 -71.43063641 228.01387882 C-68.86409376 228.50583719 -68.86409376 228.50583719 -66 227.3125 C-64.73377771 224.901758 -64.73377771 224.901758 -63.6875 221.9375 C-62.06130042 217.61237971 -60.12657845 213.62531688 -57.90161133 209.58349609 C-57.08760612 208.1016835 -57.08760612 208.1016835 -56.25715637 206.5899353 C-55.84229477 205.83838165 -55.42743317 205.086828 -55 204.3125 C-72.67996107 201.57169236 -90.36031963 198.83346427 -108.04115772 196.09832001 C-116.25036693 194.82833132 -124.45944305 193.55749373 -132.66821289 192.28466797 C-139.82163152 191.1754838 -146.97529301 190.06788188 -154.12925261 188.96219206 C-157.91840487 188.37649763 -161.7074294 187.79000296 -165.49616432 187.20161438 C-169.06050307 186.64809998 -172.62516213 186.09669796 -176.19008064 185.54693031 C-178.12562356 185.24787104 -180.06081792 184.94655865 -181.9960022 184.64518738 C-183.14445114 184.46849014 -184.29290009 184.29179291 -185.47615051 184.10974121 C-186.4762959 183.95487999 -187.47644129 183.80001877 -188.50689411 183.64046478 C-191.07663158 183.24728749 -191.07663158 183.24728749 -194 183.3125 Z M4 191.3125 C2.45413124 194.40423752 2.70640479 196.90679552 3 200.3125 C4.41666667 202.89583333 4.41666667 202.89583333 7 204.3125 C10.5 205.0625 10.5 205.0625 14 204.3125 C16.65884601 202.32229883 16.65884601 202.32229883 18 199.3125 C17.93611062 196.11803105 17.56489338 194.17470568 15.8125 191.5 C11.85662462 188.90821958 7.89810701 188.56938766 4 191.3125 Z M-48.5 221.875 C-50.32491235 224.35018037 -50.32491235 224.35018037 -49.9375 227.9375 C-49.3249155 231.56766924 -49.3249155 231.56766924 -46 233.3125 C-42.00453212 233.83364798 -40.47680735 233.64419207 -37.125 231.3125 C-36.42375 230.6525 -35.7225 229.9925 -35 229.3125 C-35.32529059 226.38488473 -35.59569177 223.98634706 -37.125 221.4375 C-41.00200806 219.11129517 -44.76983611 219.54364757 -48.5 221.875 Z M203.67871094 220.84692383 C202.74671371 221.18672775 201.81471649 221.52653168 200.85447693 221.87663269 C199.31002647 222.44236748 199.31002647 222.44236748 197.734375 223.01953125 C195.50496742 223.83285389 193.27555645 224.64616725 191.04614258 225.45947266 C189.85824127 225.89350403 188.67033997 226.3275354 187.44644165 226.77471924 C181.17290636 229.06639183 174.89724342 231.35221806 168.62109375 233.63671875 C167.97589468 233.87160004 167.33069561 234.10648132 166.66594505 234.34848022 C153.8516567 239.01238825 141.02148506 243.63147754 128.18341064 248.22952271 C124.83431715 249.42968175 121.48616884 250.63244663 118.13818359 251.83569336 C108.96609448 255.12865465 99.79157517 258.40529845 90.56640625 261.546875 C89.21953083 262.00992142 87.87276378 262.47328323 86.52612305 262.93701172 C84.19554331 263.73522164 81.86013581 264.51956221 79.51879883 265.28564453 C74.11886565 267.04952211 74.11886565 267.04952211 69.98828125 270.73828125 C69.66214844 271.58777344 69.33601563 272.43726563 69 273.3125 C68.54238281 274.19550781 68.08476562 275.07851563 67.61328125 275.98828125 C67.18402344 276.85839844 66.75476563 277.72851562 66.3125 278.625 C65.87550781 279.50800781 65.43851562 280.39101563 64.98828125 281.30078125 C64.66214844 281.96464844 64.33601563 282.62851562 64 283.3125 C69.03634471 287.93370133 74.11708573 292.45687033 79.4375 296.75 C84.211403 300.61075137 88.73388428 304.68687075 93.25 308.84375 C95.93737634 311.25628104 98.68965444 313.5450621 101.5 315.8125 C106.25739668 319.65085414 110.75783918 323.70872359 115.25390625 327.84765625 C117.91875166 330.23957297 120.64831825 332.50504884 123.4375 334.75 C127.96542784 338.40197025 132.24323114 342.24586863 136.49731445 346.20654297 C140.78966755 350.17852936 145.25594352 353.87704604 149.8203125 357.53515625 C152 359.3125 152 359.3125 154 361.3125 C157.13595769 361.20436353 159.91732099 360.83643359 163 360.3125 C164.27746094 360.15652344 165.55492187 360.00054687 166.87109375 359.83984375 C172.68766436 358.94830258 177.40731561 358.04498114 181.4921875 353.6015625 C183.24225624 350.58638382 184.7172897 347.63079803 186.07714844 344.4296875 C187.04608629 342.20676975 188.11888241 340.06316238 189.2265625 337.90625 C196.81802749 322.93644725 202.0123008 307.32799874 205.8125 291 C206.10495605 289.74932739 206.10495605 289.74932739 206.40332031 288.47338867 C209.48798117 274.41152419 210.30788856 260.63290727 210.20581055 246.2902832 C210.18725895 243.58991265 210.1853037 240.88988156 210.18554688 238.18945312 C210.18064005 236.45572621 210.17481542 234.72200159 210.16796875 232.98828125 C210.16629951 231.78985344 210.16629951 231.78985344 210.16459656 230.56721497 C210.13161528 226.69617048 209.94090692 223.07565838 209 219.3125 C207.14318264 219.3125 205.40229577 220.21671829 203.67871094 220.84692383 Z M47 236.3125 C47 239.27649346 47.54184344 240.63732191 49.1875 243.0625 C51.88022316 244.91955046 53.72834308 245.3125 57 245.3125 C60.39788671 242.87488562 61.78357038 241.37300512 62.625 237.25 C62.22711218 234.15430404 62.22711218 234.15430404 59.8125 231.9375 C53.49972704 228.29012007 50.79985147 230.38920213 47 236.3125 Z M-203.84431267 256.2945118 C-206.79228326 261.4420718 -206.17327008 265.73791517 -205 271.3125 C-204.81511439 272.73029311 -204.64268409 274.14974706 -204.48046875 275.5703125 C-199.22379095 318.26722478 -179.20078769 358.06624651 -150 389.3125 C-147.00638002 386.48815965 -144.71179313 383.60505417 -142.4609375 380.1640625 C-141.80287109 379.16536133 -141.14480469 378.16666016 -140.46679688 377.13769531 C-139.77650391 376.08163086 -139.08621094 375.02556641 -138.375 373.9375 C-133.84780879 367.07310032 -129.32726192 360.22049105 -124.5 353.5625 C-120.95751557 348.67276198 -117.5622397 343.70635591 -114.234375 338.66796875 C-111.51248808 334.56132813 -108.72321573 330.50099061 -105.9375 326.4375 C-100.48251417 318.47908385 -95.04117859 310.51153374 -89.60961914 302.53710938 C-86.52610668 298.0115861 -83.4375673 293.48969247 -80.3359375 288.9765625 C-79.75263672 288.12707031 -79.16933594 287.27757812 -78.56835938 286.40234375 C-77.47993248 284.81803609 -76.39019722 283.23462607 -75.29882812 281.65234375 C-74.32246077 280.23054867 -73.35383174 278.80340005 -72.39404297 277.37036133 C-71.45269205 275.98075592 -70.48184604 274.61074621 -69.48486328 273.26049805 C-66.95105641 269.65810836 -65.97483823 268.03405067 -66.1328125 263.50390625 C-66.46023437 262.30636719 -66.78765625 261.10882813 -67.125 259.875 C-67.43695313 258.65941406 -67.74890625 257.44382812 -68.0703125 256.19140625 C-68.71589775 253.44473772 -68.71589775 253.44473772 -70 252.3125 C-71.50274529 252.06118055 -73.01570444 251.87058925 -74.5302887 251.7049408 C-75.50982513 251.59630203 -76.48936157 251.48766327 -77.49858093 251.37573242 C-78.58258682 251.26068359 -79.66659271 251.14563477 -80.78344727 251.02709961 C-81.9185675 250.90371719 -83.05368774 250.78033478 -84.22320557 250.6532135 C-94.74130287 249.52372901 -105.26904504 248.48985268 -115.80015659 247.48985958 C-122.87464629 246.81628638 -129.94286016 246.11089436 -137.00561523 245.32299805 C-143.17174392 244.63515119 -149.34059981 244.00977793 -155.52033275 243.4567433 C-158.78744981 243.16234889 -162.04309824 242.8306036 -165.30056953 242.44221306 C-182.57775318 240.40938051 -193.30865587 241.32410658 -203.84431267 256.2945118 Z M-38 281.3125 C-39.23215824 284.85495493 -39.26437963 286.61267155 -37.9375 290.125 C-36.12362206 292.53227865 -36.12362206 292.53227865 -33.125 293.3125 C-29.32615149 293.3125 -27.80885066 292.88059203 -25 290.3125 C-23.66339855 286.95657137 -23.66339855 286.95657137 -24 283.3125 C-26.0424351 280.26976583 -26.0424351 280.26976583 -29 278.3125 C-33.31858974 278.3125 -34.70674025 278.6422894 -38 281.3125 Z M22 288.3125 C19.74358069 291.05082802 19.74358069 291.05082802 20.125 293.75 C21.19116071 296.87232778 22.43454634 298.26013707 25 300.3125 C26.88850355 301.38892709 26.88850355 301.38892709 29 301.3125 C32.44560634 299.67173508 33.85674962 298.52737558 36 295.3125 C36.50014953 292.85508463 36.50014953 292.85508463 36 290.3125 C34.05468941 287.71875255 32.58776548 286.53856365 29.5625 285.375 C26.18120249 285.29252933 24.66913256 286.2926159 22 288.3125 Z M-57 289.3125 C-65.00736549 305.1404976 -72.99647473 320.97756643 -80.96386147 336.82572556 C-84.66353704 344.18379444 -88.36916523 351.5387506 -92.08886719 358.88671875 C-95.33026476 365.28987304 -98.56044111 371.69853916 -101.77716672 378.11412549 C-103.4814245 381.5121952 -105.19123697 384.90720494 -106.91450882 388.29567719 C-108.53542928 391.48333093 -110.14126984 394.67812485 -111.73572731 397.87909317 C-112.6056432 399.61566495 -113.49148097 401.34423197 -114.37770081 403.07254028 C-114.88821487 404.10456573 -115.39872894 405.13659119 -115.92471313 406.19989014 C-116.3763917 407.09587292 -116.82807026 407.9918557 -117.29343605 408.91498947 C-118.24811115 411.29130499 -118.24811115 411.29130499 -117.22662926 413.50484085 C-115.81916061 415.57899942 -114.33232642 417.48217314 -112.6875 419.375 C-112.11386719 420.04660156 -111.54023438 420.71820313 -110.94921875 421.41015625 C-108.80973565 423.49818885 -106.57683302 424.81602691 -104 426.3125 C-103.62415771 425.63598389 -103.24831543 424.95946777 -102.86108398 424.26245117 C-102.32813721 423.30314697 -101.79519043 422.34384277 -101.24609375 421.35546875 C-100.64651855 420.27620117 -100.04694336 419.19693359 -99.42919922 418.08496094 C-98.08331585 415.66235414 -96.7372678 413.23983895 -95.39111328 410.81738281 C-91.96512162 404.65185737 -88.54074688 398.48544998 -85.12109375 392.31640625 C-78.76926132 380.86199832 -72.38560365 369.42760675 -65.92456055 358.03442383 C-62.97405451 352.82501435 -60.04303963 347.6052828 -57.13671875 342.37109375 C-56.80986588 341.78249069 -56.483013 341.19388763 -56.14625549 340.58744812 C-54.51768554 337.65269967 -52.89289851 334.71594798 -51.27172852 331.77709961 C-48.64435788 327.02272733 -46.01487139 322.28109722 -43.203125 317.6328125 C-42.8110083 316.97933838 -42.4188916 316.32586426 -42.01489258 315.65258789 C-41.0327443 314.03214338 -40.03105855 312.42358149 -39.02734375 310.81640625 C-37.74046622 308.40483795 -37.74046622 308.40483795 -38.5859375 306.16796875 C-40.12844058 304.1439661 -41.70950028 302.66355282 -43.6875 301.0625 C-47.40420025 297.94155498 -50.49024074 294.57213519 -53.5546875 290.81640625 C-54.03164062 290.32011719 -54.50859375 289.82382812 -55 289.3125 C-55.66 289.3125 -56.32 289.3125 -57 289.3125 Z M41.0625 305 C35.73806496 308.6989887 30.03192492 311.00587558 24 313.3125 C25.61724151 317.39457345 28.54384801 320.11648063 31.625 323.125 C32.12128906 323.62064453 32.61757813 324.11628906 33.12890625 324.62695312 C35.90741353 327.37364544 38.76227837 329.98790734 41.73036194 332.52854919 C45.90850866 336.17387302 49.79270321 340.04392595 53.65014648 344.02368164 C55.13675 345.54655496 56.62352847 347.0692575 58.11045837 348.59181213 C59.2737029 349.78556552 59.2737029 349.78556552 60.46044731 351.00343513 C65.46458218 356.12916211 70.49921017 361.22499302 75.52709866 366.32740116 C79.93743133 370.80661642 84.33730055 375.2952964 88.71704102 379.80444336 C92.96880698 384.1806378 97.24679111 388.52957369 101.54396248 392.86117363 C103.17370291 394.51374472 104.79358828 396.1760952 106.40325737 397.84822273 C108.65083869 400.18020425 110.93034367 402.47575383 113.22045898 404.76586914 C113.87683853 405.46336777 114.53321808 406.16086639 115.20948792 406.87950134 C118.70846665 410.39157016 118.70846665 410.39157016 123.38560677 411.31127739 C130.47211202 409.8278845 134.56881495 407.00708372 139 401.3125 C133.34535683 395.13469102 127.68363798 388.96365555 122 382.8125 C115.8629682 376.16990263 109.7523137 369.50338339 103.64550781 362.83300781 C98.44135308 357.14927654 93.22952368 351.47290815 88 345.8125 C81.86301427 339.16985983 75.75231393 332.50338363 69.64550781 325.83300781 C69.19788086 325.34413086 68.75025391 324.85525391 68.2890625 324.3515625 C67.83926025 323.86018799 67.38945801 323.36881348 66.92602539 322.86254883 C66.02265589 321.87701071 65.11820884 320.89245914 64.21264648 319.90893555 C61.70190479 317.18084472 59.2132503 314.43558895 56.74609375 311.66796875 C56.20460693 311.06654053 55.66312012 310.4651123 55.10522461 309.84545898 C54.05387113 308.67769709 53.00883718 307.50420715 51.97094727 306.32446289 C50.70804221 304.92963491 49.35955134 303.6133053 48 302.3125 C44.48520298 302.3125 43.81821943 302.96271767 41.0625 305 Z M-15 315.3125 C-19.99922461 325.89323199 -24.36274251 336.74323029 -28.8125 347.5625 C-29.65373806 349.60357824 -30.49513009 351.64459303 -31.33666992 353.68554688 C-35.43299497 363.62454581 -39.51735444 373.56843697 -43.59375 383.515625 C-43.95409836 384.39478577 -44.31444672 385.27394653 -44.68571472 386.17974854 C-46.37490809 390.30163787 -48.06263108 394.42411679 -49.74731445 398.54785156 C-50.0544487 399.29802551 -50.36158295 400.04819946 -50.67802429 400.82110596 C-51.27110667 402.27109202 -51.86224847 403.72187366 -52.45124817 405.17352295 C-53.8474759 408.59568749 -55.29032088 411.98046186 -56.84912109 415.33203125 C-57.13969894 415.96790161 -57.43027679 416.60377197 -57.72966003 417.25891113 C-58.51786421 418.97131743 -59.32593955 420.67453831 -60.13549805 422.37695312 C-61.18473868 425.93980808 -60.73806292 427.10073971 -59 430.3125 C-58.66291016 431.00432373 -58.32582031 431.69614746 -57.97851562 432.40893555 C-56.82279869 434.60800805 -55.66501115 436.80583362 -54.5 439 C-54.09652344 439.77150391 -53.69304687 440.54300781 -53.27734375 441.33789062 C-52.69146484 442.44487305 -52.69146484 442.44487305 -52.09375 443.57421875 C-51.73990234 444.24412842 -51.38605469 444.91403809 -51.02148438 445.60424805 C-49.60650375 447.97055288 -48.57316058 449.15610546 -45.88037109 449.89086914 C-45.02008301 450.04160889 -44.15979492 450.19234863 -43.2734375 450.34765625 C-42.32339844 450.51716797 -41.37335938 450.68667969 -40.39453125 450.86132812 C-39.39808594 451.03083984 -38.40164062 451.20035156 -37.375 451.375 C-36.40175781 451.54837891 -35.42851562 451.72175781 -34.42578125 451.90039062 C-26.11722463 453.35969969 -18.00203421 454.46344114 -9.56640625 454.55078125 C-8.77980118 454.56062042 -7.99319611 454.57045959 -7.18275452 454.58059692 C26.62981837 454.9159612 58.32857853 450.39359485 89 435.3125 C89 430.9827331 86.40930166 428.80247441 83.75 425.625 C82.63848057 424.26868164 81.52917042 422.91055027 80.421875 421.55078125 C79.56625977 420.50011475 79.56625977 420.50011475 78.69335938 419.42822266 C76.04448751 416.11866043 73.52164729 412.71939755 71 409.3125 C67.10031841 404.06014021 63.11259449 398.89985236 59 393.8125 C54.33857684 388.04479614 49.85279976 382.16687513 45.42529297 376.21826172 C41.34416532 370.74442103 37.15124892 365.36823731 32.91796875 360.01171875 C25.80090206 351.00529596 18.76829014 341.92979261 11.76904297 332.83154297 C10.54592258 331.24699262 9.31029985 329.67211704 8.07421875 328.09765625 C6 325.3125 6 325.3125 4.58203125 322.80859375 C3.19162061 320.41708744 2.23706348 318.95830804 0 317.3125 C-4.99984839 316.06121798 -9.86291099 315.57392947 -15 315.3125 Z " fill="#000000" transform="translate(254,9.6875)"/>
</svg>
